<svg width="18" height="18" viewBox="0 0 18 18" fill="none" xmlns="http://www.w3.org/2000/svg">
<path d="M2.8125 11.8125C4.3658 11.8125 5.625 10.5533 5.625 9C5.625 7.4467 4.3658 6.1875 2.8125 6.1875C1.2592 6.1875 0 7.4467 0 9C0 10.5533 1.2592 11.8125 2.8125 11.8125Z" fill="black"/>
<path d="M8.99999 18C8.44343 18 7.89939 17.8349 7.43672 17.5255C6.97406 17.2162 6.61358 16.7765 6.40091 16.2622C6.18825 15.7478 6.13297 15.182 6.24206 14.6362C6.35115 14.0905 6.61972 13.5893 7.01375 13.1963C7.40779 12.8032 7.90959 12.5359 8.45562 12.4282C9.00166 12.3205 9.56738 12.3772 10.0812 12.5911C10.595 12.8051 11.0337 13.1666 11.3419 13.6301C11.6501 14.0935 11.8139 14.638 11.8125 15.1945C11.8106 15.9392 11.5135 16.6528 10.9862 17.1787C10.459 17.7047 9.7447 18 8.99999 18Z" fill="black"/>
<path d="M9 5.625C10.5533 5.625 11.8125 4.3658 11.8125 2.8125C11.8125 1.2592 10.5533 0 9 0C7.4467 0 6.1875 1.2592 6.1875 2.8125C6.1875 4.3658 7.4467 5.625 9 5.625Z" fill="black"/>
<path d="M15.1875 11.8125C16.7408 11.8125 18 10.5533 18 9C18 7.4467 16.7408 6.1875 15.1875 6.1875C13.6342 6.1875 12.375 7.4467 12.375 9C12.375 10.5533 13.6342 11.8125 15.1875 11.8125Z" fill="black"/>
</svg>
