<svg width="33" height="38" viewBox="0 0 33 38" fill="none" xmlns="http://www.w3.org/2000/svg">
<path d="M10 24.6333C10 24.3239 10.1229 24.0272 10.3417 23.8084C10.5605 23.5896 10.8572 23.4667 11.1667 23.4667H15.8333C16.1428 23.4667 16.4395 23.5896 16.6583 23.8084C16.8771 24.0272 17 24.3239 17 24.6333C17 24.9428 16.8771 25.2395 16.6583 25.4583C16.4395 25.6771 16.1428 25.8 15.8333 25.8H11.1667C10.8572 25.8 10.5605 25.6771 10.3417 25.4583C10.1229 25.2395 10 24.9428 10 24.6333ZM10 19.9667C10 19.6573 10.1229 19.3605 10.3417 19.1417C10.5605 18.9229 10.8572 18.8 11.1667 18.8H22.8333C23.1428 18.8 23.4395 18.9229 23.6583 19.1417C23.8771 19.3605 24 19.6573 24 19.9667C24 20.2761 23.8771 20.5728 23.6583 20.7916C23.4395 21.0104 23.1428 21.1333 22.8333 21.1333H11.1667C10.8572 21.1333 10.5605 21.0104 10.3417 20.7916C10.1229 20.5728 10 20.2761 10 19.9667ZM10 15.3C10 14.9906 10.1229 14.6938 10.3417 14.475C10.5605 14.2563 10.8572 14.1333 11.1667 14.1333H22.8333C23.1428 14.1333 23.4395 14.2563 23.6583 14.475C23.8771 14.6938 24 14.9906 24 15.3C24 15.6094 23.8771 15.9062 23.6583 16.125C23.4395 16.3438 23.1428 16.4667 22.8333 16.4667H11.1667C10.8572 16.4667 10.5605 16.3438 10.3417 16.125C10.1229 15.9062 10 15.6094 10 15.3ZM10 10.6333C10 10.3239 10.1229 10.0272 10.3417 9.80838C10.5605 9.58959 10.8572 9.46667 11.1667 9.46667H22.8333C23.1428 9.46667 23.4395 9.58959 23.6583 9.80838C23.8771 10.0272 24 10.3239 24 10.6333C24 10.9428 23.8771 11.2395 23.6583 11.4583C23.4395 11.6771 23.1428 11.8 22.8333 11.8H11.1667C10.8572 11.8 10.5605 11.6771 10.3417 11.4583C10.1229 11.2395 10 10.9428 10 10.6333Z" fill="#23C5FF"/>
<path d="M4.66667 0.133301H28C29.2377 0.133301 30.4247 0.624966 31.2998 1.50014C32.175 2.37531 32.6667 3.56229 32.6667 4.79997V32.8C32.6667 34.0376 32.175 35.2246 31.2998 36.0998C30.4247 36.975 29.2377 37.4666 28 37.4666H4.66667C3.42899 37.4666 2.242 36.975 1.36683 36.0998C0.491665 35.2246 0 34.0376 0 32.8V30.4666H2.33333V32.8C2.33333 33.4188 2.57917 34.0123 3.01675 34.4499C3.45433 34.8875 4.04783 35.1333 4.66667 35.1333H28C28.6188 35.1333 29.2123 34.8875 29.6499 34.4499C30.0875 34.0123 30.3333 33.4188 30.3333 32.8V4.79997C30.3333 4.18113 30.0875 3.58764 29.6499 3.15005C29.2123 2.71247 28.6188 2.46663 28 2.46663H4.66667C4.04783 2.46663 3.45433 2.71247 3.01675 3.15005C2.57917 3.58764 2.33333 4.18113 2.33333 4.79997V7.1333H0V4.79997C0 3.56229 0.491665 2.37531 1.36683 1.50014C2.242 0.624966 3.42899 0.133301 4.66667 0.133301V0.133301Z" fill="#23C5FF"/>
<path d="M15.3333 11.8V10.6333C15.3333 10.3239 15.4562 10.0272 15.675 9.80838C15.8938 9.58959 16.1906 9.46667 16.5 9.46667C16.8094 9.46667 17.1062 9.58959 17.325 9.80838C17.5437 10.0272 17.6667 10.3239 17.6667 10.6333V11.8H18.8333C19.1428 11.8 19.4395 11.9229 19.6583 12.1417C19.8771 12.3605 20 12.6573 20 12.9667C20 13.2761 19.8771 13.5728 19.6583 13.7916C19.4395 14.0104 19.1428 14.1333 18.8333 14.1333H14.1667C13.8572 14.1333 13.5605 14.0104 13.3417 13.7916C13.1229 13.5728 13 13.2761 13 12.9667C13 12.6573 13.1229 12.3605 13.3417 12.1417C13.5605 11.9229 13.8572 11.8 14.1667 11.8H15.3333ZM15.3333 18.8V17.6333C15.3333 17.3239 15.4562 17.0272 15.675 16.8084C15.8938 16.5896 16.1906 16.4667 16.5 16.4667C16.8094 16.4667 17.1062 16.5896 17.325 16.8084C17.5437 17.0272 17.6667 17.3239 17.6667 17.6333V18.8H18.8333C19.1428 18.8 19.4395 18.9229 19.6583 19.1417C19.8771 19.3605 20 19.6573 20 19.9667C20 20.2761 19.8771 20.5728 19.6583 20.7916C19.4395 21.0104 19.1428 21.1333 18.8333 21.1333H14.1667C13.8572 21.1333 13.5605 21.0104 13.3417 20.7916C13.1229 20.5728 13 20.2761 13 19.9667C13 19.6573 13.1229 19.3605 13.3417 19.1417C13.5605 18.9229 13.8572 18.8 14.1667 18.8H15.3333ZM15.3333 25.8V24.6333C15.3333 24.3239 15.4562 24.0272 15.675 23.8084C15.8938 23.5896 16.1906 23.4667 16.5 23.4667C16.8094 23.4667 17.1062 23.5896 17.325 23.8084C17.5437 24.0272 17.6667 24.3239 17.6667 24.6333V25.8H18.8333C19.1428 25.8 19.4395 25.9229 19.6583 26.1417C19.8771 26.3605 20 26.6573 20 26.9667C20 27.2761 19.8771 27.5728 19.6583 27.7916C19.4395 28.0104 19.1428 28.1333 18.8333 28.1333H14.1667C13.8572 28.1333 13.5605 28.0104 13.3417 27.7916C13.1229 27.5728 13 27.2761 13 26.9667C13 26.6573 13.1229 26.3605 13.3417 26.1417C13.5605 25.9229 13.8572 25.8 14.1667 25.8H15.3333Z" fill="#23C5FF"/>
</svg>
