<svg width="23" height="5" viewBox="0 0 23 5" fill="none" xmlns="http://www.w3.org/2000/svg">
<path d="M3.16699 5C2.50395 5 1.86807 4.73661 1.39923 4.26777C0.930384 3.79893 0.666992 3.16304 0.666992 2.5C0.666992 1.83696 0.930384 1.20107 1.39923 0.732233C1.86807 0.263392 2.50395 0 3.16699 0C3.83003 0 4.46592 0.263392 4.93476 0.732233C5.4036 1.20107 5.66699 1.83696 5.66699 2.5C5.66699 3.16304 5.4036 3.79893 4.93476 4.26777C4.46592 4.73661 3.83003 5 3.16699 5ZM11.5003 5C10.8373 5 10.2014 4.73661 9.73256 4.26777C9.26372 3.79893 9.00033 3.16304 9.00033 2.5C9.00033 1.83696 9.26372 1.20107 9.73256 0.732233C10.2014 0.263392 10.8373 0 11.5003 0C12.1634 0 12.7993 0.263392 13.2681 0.732233C13.7369 1.20107 14.0003 1.83696 14.0003 2.5C14.0003 3.16304 13.7369 3.79893 13.2681 4.26777C12.7993 4.73661 12.1634 5 11.5003 5ZM19.8337 5C19.1706 5 18.5347 4.73661 18.0659 4.26777C17.597 3.79893 17.3337 3.16304 17.3337 2.5C17.3337 1.83696 17.597 1.20107 18.0659 0.732233C18.5347 0.263392 19.1706 0 19.8337 0C20.4967 0 21.1326 0.263392 21.6014 0.732233C22.0703 1.20107 22.3337 1.83696 22.3337 2.5C22.3337 3.16304 22.0703 3.79893 21.6014 4.26777C21.1326 4.73661 20.4967 5 19.8337 5Z" fill="black"/>
</svg>
