<svg width="19" height="22" viewBox="0 0 19 22" fill="none" xmlns="http://www.w3.org/2000/svg">
<path d="M9.5 0C9.72231 0 9.93552 0.0869019 10.0927 0.241588C10.2499 0.396275 10.3382 0.606075 10.3382 0.824835V2.20396H12.5735C13.6532 2.20396 14.5294 3.06619 14.5294 4.12857V9.90242H17.0441C18.1238 9.90242 19 10.7646 19 11.827V20.0754C19 20.5858 18.7939 21.0754 18.4271 21.4363C18.0603 21.7972 17.5628 22 17.0441 22H1.95588C1.43715 22 0.939664 21.7972 0.572865 21.4363C0.206066 21.0754 0 20.5858 0 20.0754V10.8042C0 10.1235 0.365471 9.4933 0.961177 9.14687L4.47059 7.10678V4.12747C4.47088 3.61723 4.67708 3.12797 5.04385 2.76728C5.41061 2.40658 5.90793 2.20396 6.42647 2.20396H8.66177V0.824835C8.66177 0.606075 8.75008 0.396275 8.90728 0.241588C9.06448 0.0869019 9.27769 0 9.5 0ZM6.14706 6.62287C7.05235 6.75485 7.82353 7.5093 7.82353 8.52989V20.3492H11.1765V11.8259C11.1765 11.3631 11.346 10.9158 11.6539 10.566C11.9618 10.2162 12.3875 9.98723 12.8529 9.92112V4.12857C12.8529 4.05565 12.8235 3.98572 12.7711 3.93416C12.7187 3.8826 12.6476 3.85363 12.5735 3.85363H6.42647C6.35237 3.85363 6.2813 3.8826 6.2289 3.93416C6.1765 3.98572 6.14706 4.05565 6.14706 4.12857V6.62398V6.62287ZM13.1324 11.551C13.0582 11.551 12.9872 11.58 12.9348 11.6315C12.8824 11.6831 12.8529 11.753 12.8529 11.8259V20.3492H17.0441C17.1182 20.3492 17.1893 20.3203 17.2417 20.2687C17.2941 20.2171 17.3235 20.1472 17.3235 20.0743V11.8259C17.3235 11.753 17.2941 11.6831 17.2417 11.6315C17.1893 11.58 17.1182 11.551 17.0441 11.551H13.1324ZM5.72571 8.29344L1.81394 10.5678C1.77213 10.5921 1.73746 10.6266 1.71335 10.6681C1.68925 10.7095 1.67654 10.7565 1.67647 10.8042V20.0754C1.67647 20.2261 1.80165 20.3503 1.95588 20.3503H6.14706V8.52879C6.14699 8.48035 6.13392 8.43278 6.10916 8.3909C6.0844 8.34903 6.04883 8.31433 6.00607 8.29033C5.9633 8.26633 5.91484 8.25388 5.86561 8.25423C5.81638 8.25458 5.76811 8.26773 5.72571 8.29234V8.29344Z" fill="black"/>
</svg>
