<svg width="20" height="26" viewBox="0 0 20 26" fill="none" xmlns="http://www.w3.org/2000/svg">
<path d="M15 0H5C3.67441 0.00158786 2.40356 0.528882 1.46622 1.46622C0.528882 2.40356 0.00158786 3.67441 0 5V17C0.00371459 18.0748 0.354368 19.1197 0.999778 19.9792C1.64519 20.8386 2.55085 21.4667 3.582 21.77L1.769 26H3.945L5.659 22H14.341L16.055 26H18.231L16.418 21.77C17.4491 21.4667 18.3548 20.8386 19.0002 19.9792C19.6456 19.1197 19.9963 18.0748 20 17V5C19.9984 3.67441 19.4711 2.40356 18.5338 1.46622C17.5964 0.528882 16.3256 0.00158786 15 0ZM5 2H15C15.6184 2.00184 16.2211 2.19507 16.7253 2.55318C17.2296 2.91128 17.6105 3.41669 17.816 4H2.184C2.38945 3.41669 2.77045 2.91128 3.27465 2.55318C3.77886 2.19507 4.38157 2.00184 5 2ZM18 16H15V18H17.816C17.6105 18.5833 17.2296 19.0887 16.7253 19.4468C16.2211 19.8049 15.6184 19.9982 15 20H5C4.38157 19.9982 3.77886 19.8049 3.27465 19.4468C2.77045 19.0887 2.38945 18.5833 2.184 18H5V16H2V14H18V16ZM18 12H2V6H18V12Z" fill="black"/>
</svg>
