<svg width="17" height="16" viewBox="0 0 17 16" fill="none" xmlns="http://www.w3.org/2000/svg">
<path d="M8.77583 5.3322C7.30684 5.3322 6.10803 6.53101 6.10803 8C6.10803 9.46899 7.30684 10.6678 8.77583 10.6678C10.2448 10.6678 11.4436 9.46899 11.4436 8C11.4436 6.53101 10.2448 5.3322 8.77583 5.3322ZM16.7772 8C16.7772 6.89525 16.7872 5.80051 16.7252 4.69777C16.6632 3.4169 16.371 2.28014 15.4343 1.3435C14.4957 0.404868 13.3609 0.114672 12.0801 0.0526304C10.9753 -0.0094115 9.88058 0.000595291 8.77783 0.000595291C7.67309 0.000595291 6.57835 -0.0094115 5.4756 0.0526304C4.19474 0.114672 3.05797 0.40687 2.12133 1.3435C1.1827 2.28214 0.892504 3.4169 0.830462 4.69777C0.768421 5.80252 0.778427 6.89725 0.778427 8C0.778427 9.10275 0.768421 10.1995 0.830462 11.3022C0.892504 12.5831 1.1847 13.7199 2.12133 14.6565C3.05997 15.5951 4.19474 15.8853 5.4756 15.9474C6.58035 16.0094 7.67509 15.9994 8.77783 15.9994C9.88258 15.9994 10.9773 16.0094 12.0801 15.9474C13.3609 15.8853 14.4977 15.5931 15.4343 14.6565C16.373 13.7179 16.6632 12.5831 16.7252 11.3022C16.7892 10.1995 16.7772 9.10475 16.7772 8ZM8.77583 12.1048C6.5043 12.1048 4.67106 10.2715 4.67106 8C4.67106 5.72847 6.5043 3.89523 8.77583 3.89523C11.0474 3.89523 12.8806 5.72847 12.8806 8C12.8806 10.2715 11.0474 12.1048 8.77583 12.1048ZM13.0487 4.68576C12.5184 4.68576 12.0901 4.25747 12.0901 3.72711C12.0901 3.19675 12.5184 2.76847 13.0487 2.76847C13.5791 2.76847 14.0074 3.19675 14.0074 3.72711C14.0075 3.85305 13.9828 3.97778 13.9347 4.09416C13.8866 4.21054 13.816 4.31628 13.7269 4.40533C13.6379 4.49438 13.5321 4.56499 13.4158 4.61311C13.2994 4.66123 13.1747 4.68592 13.0487 4.68576Z" fill="#003F89"/>
</svg>
