<svg width="17" height="16" viewBox="0 0 17 16" fill="none" xmlns="http://www.w3.org/2000/svg">
<path fill-rule="evenodd" clip-rule="evenodd" d="M6.27657 5.5752H9.24777V7.0552C9.67577 6.204 10.7734 5.4392 12.4222 5.4392C15.583 5.4392 16.3334 7.1336 16.3334 10.2424V16H13.1334V10.9504C13.1334 9.18 12.7054 8.1816 11.6158 8.1816C10.1046 8.1816 9.47657 9.2576 9.47657 10.9496V16H6.27657V5.5752ZM0.789374 15.864H3.98937V5.4392H0.789374V15.864ZM4.44777 2.04C4.44789 2.30822 4.3947 2.57379 4.29128 2.82127C4.18787 3.06875 4.0363 3.29321 3.84537 3.4816C3.45849 3.8661 2.93482 4.08132 2.38937 4.08C1.84489 4.07963 1.32242 3.86496 0.934974 3.4824C0.744743 3.29337 0.593683 3.06866 0.490449 2.82115C0.387215 2.57363 0.333837 2.30818 0.333374 2.04C0.333374 1.4984 0.549374 0.98 0.935774 0.5976C1.32288 0.214527 1.84557 -0.000239369 2.39017 2.00212e-07C2.93577 2.00212e-07 3.45897 0.2152 3.84537 0.5976C4.23097 0.98 4.44777 1.4984 4.44777 2.04Z" fill="#003F89"/>
</svg>
