<svg width="198" height="104" viewBox="0 0 198 104" fill="none" xmlns="http://www.w3.org/2000/svg">
<path d="M79.6096 72.0927L72.031 58.2487H76.0593L81.8286 69.2795L80.8471 69.3307L86.5311 58.2487H90.5594L82.8783 72.0927V78.7333H79.6096V72.0927ZM95.8251 79.0402C94.7675 79.0511 93.7227 78.8084 92.7783 78.3327C91.8778 77.864 91.1357 77.1405 90.6447 76.2526C90.1139 75.176 89.8378 73.9918 89.8378 72.7917C89.8378 71.5915 90.1139 70.4074 90.6447 69.3307C91.1668 68.4023 91.9229 67.6264 92.8381 67.0802C93.7477 66.5618 94.7778 66.2913 95.8251 66.2959C96.796 66.2488 97.7588 66.4922 98.5903 66.9949C99.2476 67.3978 99.812 67.9353 100.246 68.572L100.075 69.0238L100.391 66.833H103.267V78.7674H100.109V75.869L100.417 76.6277C100.291 76.8319 100.142 77.0207 99.9729 77.1904C99.6837 77.4833 99.3727 77.754 99.0426 78.0002C98.6109 78.3196 98.1371 78.5778 97.6345 78.7674C97.0392 78.9712 96.4113 79.0637 95.7825 79.0402H95.8251ZM96.6786 76.4828C97.2205 76.4907 97.7581 76.3862 98.2575 76.1759C98.7122 75.9848 99.1178 75.6934 99.4438 75.3235C99.7698 74.9258 100.008 74.464 100.144 73.9681V71.4107C100.002 70.9356 99.7508 70.5004 99.4096 70.1405C99.0657 69.7681 98.6429 69.4768 98.1721 69.2881C97.6727 69.0778 97.1351 68.9733 96.5932 68.9812C95.9603 68.9704 95.3368 69.1357 94.7925 69.4586C94.257 69.7847 93.8112 70.2388 93.4952 70.7799C93.189 71.3455 93.0278 71.9781 93.0258 72.6212C93.0168 73.3035 93.1938 73.9753 93.5379 74.5648C93.861 75.1332 94.3255 75.6089 94.8863 75.9458C95.4195 76.2683 96.0297 76.442 96.653 76.4487L96.6786 76.4828ZM112.502 79.0402C111.444 79.0543 110.402 78.7802 109.489 78.2474C108.591 77.7126 107.865 76.9315 107.398 75.9969C106.872 74.9384 106.612 73.7683 106.638 72.5871C106.612 71.3946 106.907 70.217 107.492 69.1772C108.011 68.2638 108.785 67.5205 109.719 67.0376C110.71 66.5246 111.812 66.264 112.928 66.2789C113.779 66.2777 114.621 66.4488 115.403 66.7818C116.127 67.0827 116.758 67.5712 117.23 68.1969L117.178 69.271V56.791H120.336V78.7333H117.178V76.031L117.494 76.8153C116.867 77.4733 116.131 78.0183 115.318 78.4264C114.433 78.8527 113.459 79.063 112.476 79.0402H112.502ZM113.483 76.3635C114.067 76.3827 114.649 76.2781 115.19 76.0566C115.66 75.8663 116.082 75.5753 116.427 75.2041C116.789 74.8083 117.058 74.3364 117.213 73.8231V71.2658C117.067 70.7795 116.806 70.3352 116.453 69.97C116.103 69.5926 115.671 69.3008 115.19 69.1176C114.652 68.8836 114.07 68.7673 113.483 68.7766C112.838 68.7713 112.205 68.9487 111.657 69.2881C111.108 69.606 110.652 70.0615 110.334 70.6094C109.986 71.1971 109.808 71.8702 109.822 72.553C109.814 73.2324 109.991 73.9013 110.334 74.4881C110.65 75.0534 111.105 75.5287 111.657 75.869C112.199 76.1978 112.823 76.3691 113.457 76.3635H113.483ZM129.724 79.0402L122.897 66.833H126.643L130.91 75.7753L128.965 75.69L132.856 66.833H136.372L129.895 79.0402H129.724ZM141.852 66.833L142.133 70.2428L142.022 69.7654C142.326 69.048 142.791 68.4095 143.379 67.8986C143.935 67.4232 144.552 67.0246 145.214 66.7136C145.696 66.4737 146.221 66.3317 146.759 66.2959L146.622 69.45C145.798 69.3399 144.96 69.4984 144.233 69.9018C143.582 70.2888 143.046 70.842 142.679 71.5045C142.311 72.1357 142.116 72.8535 142.116 73.5845V78.6992H138.993V66.7648L141.852 66.833ZM151.137 61.5989H154.295V66.833H157.393V69.3051H154.295V78.7333H151.137V69.3051H149.08V66.833H151.137V61.5989ZM161.643 61.5989H164.801V66.833H167.899V69.3051H164.801V78.7333H161.643V69.3051H159.595V66.833H161.652L161.643 61.5989ZM175.981 79.0402C174.926 79.052 173.884 78.8093 172.943 78.3327C172.038 77.8674 171.292 77.1433 170.801 76.2526C170.27 75.176 169.994 73.9918 169.994 72.7917C169.994 71.5915 170.27 70.4074 170.801 69.3307C171.323 68.4 172.083 67.6237 173.002 67.0802C173.91 66.5632 174.937 66.2928 175.981 66.2959C176.952 66.2477 177.915 66.4912 178.746 66.9949C179.404 67.3978 179.968 67.9353 180.402 68.572L180.24 69.0238L180.547 66.833H183.491V78.7674H180.334V75.869L180.649 76.6277C180.517 76.8293 180.365 77.0177 180.197 77.1904C179.908 77.4833 179.597 77.754 179.267 78.0002C178.837 78.323 178.363 78.5815 177.859 78.7674C177.255 78.9744 176.618 79.0669 175.981 79.0402ZM176.834 76.4828C177.376 76.4915 177.914 76.3869 178.413 76.1759C178.868 75.9848 179.274 75.6934 179.6 75.3235C179.929 74.928 180.168 74.4654 180.299 73.9681V71.4107C180.161 70.9341 179.91 70.4982 179.565 70.1405C179.222 69.7681 178.799 69.4768 178.328 69.2881C177.829 69.0771 177.291 68.9725 176.749 68.9812C176.116 68.9704 175.493 69.1357 174.948 69.4586C174.415 69.7869 173.969 70.2405 173.651 70.7799C173.326 71.3726 173.162 72.0394 173.173 72.715C173.164 73.3972 173.341 74.0691 173.685 74.6586C174.008 75.227 174.473 75.7027 175.034 76.0395C175.591 76.3375 176.22 76.479 176.852 76.4487L176.834 76.4828Z" fill="#003F89"/>
<path d="M58.0345 53.2191C56.7119 54.5782 55.507 56.0468 54.4329 57.6093C54.1769 57.9673 53.9379 58.3424 53.7075 58.7089C53.2381 59.4421 52.7943 60.1922 52.3932 60.9594C51.0297 63.4949 49.9944 66.1933 49.3122 68.9896C44.2008 70.0978 38.8978 69.9663 33.8477 68.606C32.8833 68.3673 31.9531 68.0775 31.0655 67.7535C27.55 66.521 24.3461 64.5369 21.6776 61.9398C17.9631 58.1227 15.213 53.4763 13.6552 48.3857C21.9251 42.8788 30.1864 39.9975 40.9655 42.2394C41.4946 42.3502 42.0323 42.4696 42.5785 42.606C48.8628 44.1227 54.3661 47.9017 58.0345 53.2191Z" fill="url(#paint0_linear_451_596)"/>
<path d="M49.9097 55.4096C51.4641 56.0457 52.9801 56.7715 54.4501 57.5834C54.194 57.9414 53.9551 58.3165 53.7246 58.6831C53.2552 59.4162 52.8114 60.1663 52.4103 60.9336C51.0468 63.4691 50.0115 66.1674 49.3294 68.9637C48.6617 71.6722 48.3264 74.4517 48.3308 77.2411C48.3308 78.0936 48.3308 78.8778 48.4162 79.6877C45.6542 81.1793 42.7071 82.3 39.6513 83.0208C36.6099 83.9647 33.4098 84.2896 30.2404 83.9763C27.0711 83.6629 23.9968 82.7177 21.1997 81.1965C18.1561 79.5724 15.5547 77.2316 13.6211 74.3768C15.3367 69.6692 18.1104 65.4172 21.7289 61.948C25.1405 58.4777 29.2875 55.8153 33.8649 54.1565C39.2062 52.8076 44.8432 53.2479 49.9097 55.4096Z" fill="url(#paint1_linear_451_596)"/>
<path d="M49.3293 68.9896C48.6616 71.6981 48.3263 74.4776 48.3307 77.267C48.3307 78.1194 48.3307 78.9037 48.4161 79.7135C48.6045 82.4267 49.1145 85.1079 49.9352 87.7011C49.4146 88.0847 48.8769 88.4598 48.3307 88.8263C39.6597 94.6231 28.0869 94.6231 19.4074 91.7162C19.3575 87.0921 20.3867 82.5199 22.4132 78.3621C24.4397 74.2043 27.4079 70.5751 31.0825 67.7621C31.936 67.0375 32.9004 66.364 33.8733 65.7162C39.3781 62.0506 46.052 60.7037 52.4102 60.9595C51.0467 63.495 50.0114 66.1933 49.3293 68.9896Z" fill="url(#paint2_linear_451_596)"/>
<path d="M72.2102 44.328C66.8763 46.0814 62.0473 49.1 58.1368 53.1254C58.104 53.1524 58.0753 53.184 58.0515 53.2191C56.7289 54.5782 55.5241 56.0469 54.4499 57.6093C54.1939 57.9673 53.9549 58.3424 53.7245 58.709C52.3572 57.7248 51.0805 56.6207 49.9096 55.41C46.4361 51.8978 43.6368 47.4054 40.9655 42.2395C40.5387 41.387 40.112 40.5772 39.6768 39.6821C36.7494 28.1313 39.6426 16.606 48.3222 7.93652C55.929 9.77705 62.5734 14.389 66.953 20.8683C69.0371 23.973 70.5621 27.4176 71.4592 31.0467C71.8624 32.6923 72.1476 34.3645 72.3126 36.0506C72.6248 38.8032 72.5904 41.584 72.2102 44.328Z" fill="#23C5FF"/>
<path d="M98.9945 47.1106C94.703 44.5469 89.9024 42.9508 84.9288 42.4338C83.9863 42.3329 83.0342 42.2706 82.0724 42.2469C75.4685 42.0829 68.9553 43.8084 63.3009 47.2199C65.4135 42.8852 68.1916 38.9069 71.5344 35.4292C72.197 34.7161 72.8844 34.0092 73.5925 33.3602C77.752 29.432 82.7329 26.4753 88.1756 24.7038C92.8901 23.1367 97.8387 22.3885 102.806 22.4917C104.83 30.8793 103.46 39.7255 98.9945 47.1106Z" fill="url(#paint3_linear_451_596)"/>
<path d="M85.9337 42.6229C85.9375 42.6626 85.9375 42.7025 85.9337 42.7422C84.9522 42.6229 84.0049 42.6229 83.0405 42.6229C78.3968 42.6182 73.7996 43.5455 69.5216 45.3496C65.2436 47.1537 61.3721 49.7979 58.1369 53.1252C55.7922 45.8204 56.427 37.8866 59.9035 31.0465C61.0727 27.5258 63.6843 24.0052 66.953 20.8681C71.5586 16.4405 77.0376 13.0205 83.0405 10.8262C85.9492 15.0617 87.9003 19.8787 88.7586 24.9429C89.7145 30.9863 88.7254 37.1769 85.9337 42.6229Z" fill="url(#paint4_linear_451_596)"/>
<defs>
<linearGradient id="paint0_linear_451_596" x1="3.3625" y1="55.157" x2="77.6401" y2="54.7545" gradientUnits="userSpaceOnUse">
<stop stop-color="#23FFFF"/>
<stop offset="0.3075" stop-color="#23C0FF"/>
<stop offset="0.7785" stop-color="#2300B7"/>
<stop offset="0.9207" stop-color="#2300BA"/>
<stop offset="1" stop-color="#2300C1"/>
</linearGradient>
<linearGradient id="paint1_linear_451_596" x1="14.5001" y1="55.0345" x2="62.8255" y2="84.9463" gradientUnits="userSpaceOnUse">
<stop stop-color="#23FFFF"/>
<stop offset="0.31" stop-color="#23C0FF"/>
<stop offset="0.78" stop-color="#2300B7"/>
<stop offset="0.92" stop-color="#2300BA"/>
<stop offset="1" stop-color="#2300C1"/>
</linearGradient>
<linearGradient id="paint2_linear_451_596" x1="25.8082" y1="63.8919" x2="54.265" y2="99.037" gradientUnits="userSpaceOnUse">
<stop stop-color="#23FFFF"/>
<stop offset="0.31" stop-color="#23C0FF"/>
<stop offset="0.78" stop-color="#2300B7"/>
<stop offset="0.92" stop-color="#2300BA"/>
<stop offset="1" stop-color="#2300C1"/>
</linearGradient>
<linearGradient id="paint3_linear_451_596" x1="106.895" y1="12.6703" x2="59.4495" y2="68.4344" gradientUnits="userSpaceOnUse">
<stop stop-color="#23FFFF"/>
<stop offset="0.3075" stop-color="#23C0FF"/>
<stop offset="0.7785" stop-color="#2300B7"/>
<stop offset="0.9207" stop-color="#2300BA"/>
<stop offset="1" stop-color="#2300C1"/>
</linearGradient>
<linearGradient id="paint4_linear_451_596" x1="87.1779" y1="-2.42835" x2="38.9481" y2="66.9801" gradientUnits="userSpaceOnUse">
<stop stop-color="#23FFFF"/>
<stop offset="0.3075" stop-color="#23C0FF"/>
<stop offset="0.7785" stop-color="#2300B7"/>
<stop offset="0.9207" stop-color="#2300BA"/>
<stop offset="1" stop-color="#2300C1"/>
</linearGradient>
</defs>
</svg>
