<svg width="19" height="16" viewBox="0 0 19 16" fill="none" xmlns="http://www.w3.org/2000/svg">
<path d="M18.1615 2.57569C17.5181 2.86077 16.827 3.05339 16.1004 3.14046C16.8501 2.69187 17.411 1.98585 17.6784 1.15412C16.9741 1.57249 16.2032 1.86698 15.3993 2.02478C14.8587 1.44758 14.1426 1.065 13.3623 0.936437C12.582 0.807878 11.7811 0.940534 11.0839 1.31381C10.3867 1.68708 9.83227 2.2801 9.50665 3.00077C9.18102 3.72145 9.10243 4.52947 9.28308 5.29939C7.85588 5.22773 6.4597 4.85678 5.18514 4.21061C3.91058 3.56443 2.78614 2.65748 1.88478 1.54862C1.57658 2.08026 1.39937 2.69666 1.39937 3.35312C1.39902 3.94408 1.54455 4.526 1.82305 5.04723C2.10154 5.56847 2.50438 6.0129 2.99584 6.3411C2.42588 6.32297 1.8685 6.16896 1.37009 5.8919V5.93813C1.37003 6.76699 1.65674 7.57033 2.18156 8.21186C2.70639 8.85339 3.437 9.29359 4.24943 9.45776C3.72071 9.60085 3.16638 9.62193 2.62831 9.5194C2.85753 10.2326 3.30403 10.8562 3.9053 11.303C4.50658 11.7498 5.23252 11.9975 5.98151 12.0112C4.71006 13.0093 3.13983 13.5507 1.52342 13.5483C1.23709 13.5484 0.950998 13.5317 0.666626 13.4982C2.30738 14.5532 4.21733 15.1131 6.16797 15.1109C12.7711 15.1109 16.3809 9.64191 16.3809 4.89873C16.3809 4.74463 16.377 4.58899 16.3701 4.43489C17.0723 3.92712 17.6783 3.29833 18.16 2.578L18.1615 2.57569Z" fill="#003F89"/>
</svg>
