<svg width="198" height="104" viewBox="0 0 198 104" fill="none" xmlns="http://www.w3.org/2000/svg">
<path d="M79.6096 72.0925L72.031 58.2485H76.0593L81.8286 69.2793L80.8471 69.3305L86.5311 58.2485H90.5594L82.8783 72.0925V78.7331H79.6096V72.0925ZM95.8251 79.04C94.7675 79.0509 93.7227 78.8082 92.7783 78.3325C91.8778 77.8638 91.1357 77.1403 90.6447 76.2525C90.1139 75.1758 89.8378 73.9916 89.8378 72.7915C89.8378 71.5913 90.1139 70.4072 90.6447 69.3305C91.1668 68.4021 91.9229 67.6262 92.8381 67.08C93.7477 66.5616 94.7778 66.2911 95.8251 66.2957C96.796 66.2486 97.7588 66.492 98.5903 66.9947C99.2476 67.3976 99.812 67.9351 100.246 68.5718L100.075 69.0236L100.391 66.8328H103.267V78.7672H100.109V75.8688L100.417 76.6275C100.291 76.8317 100.142 77.0205 99.9729 77.1902C99.6837 77.4831 99.3727 77.7538 99.0426 78C98.6109 78.3194 98.1371 78.5776 97.6345 78.7672C97.0392 78.971 96.4113 79.0635 95.7825 79.04H95.8251ZM96.6786 76.4826C97.2205 76.4905 97.7581 76.386 98.2575 76.1757C98.7122 75.9846 99.1178 75.6932 99.4438 75.3233C99.7698 74.9256 100.008 74.4638 100.144 73.9679V71.4105C100.002 70.9354 99.7508 70.5002 99.4096 70.1403C99.0657 69.7679 98.6429 69.4766 98.1721 69.2879C97.6727 69.0776 97.1351 68.9731 96.5932 68.981C95.9603 68.9703 95.3368 69.1355 94.7925 69.4584C94.257 69.7845 93.8112 70.2386 93.4952 70.7797C93.189 71.3453 93.0278 71.9779 93.0258 72.621C93.0168 73.3033 93.1938 73.9751 93.5379 74.5646C93.861 75.1331 94.3255 75.6087 94.8863 75.9456C95.4195 76.2681 96.0297 76.4418 96.653 76.4485L96.6786 76.4826ZM112.502 79.04C111.444 79.0541 110.402 78.78 109.489 78.2472C108.591 77.7124 107.865 76.9313 107.398 75.9967C106.872 74.9382 106.612 73.7681 106.638 72.5869C106.612 71.3944 106.907 70.2168 107.492 69.177C108.011 68.2636 108.785 67.5203 109.719 67.0374C110.71 66.5244 111.812 66.2638 112.928 66.2787C113.779 66.2775 114.621 66.4486 115.403 66.7816C116.127 67.0825 116.758 67.571 117.23 68.1967L117.178 69.2708V56.7908H120.336V78.7331H117.178V76.0308L117.494 76.8151C116.867 77.4731 116.131 78.0181 115.318 78.4262C114.433 78.8525 113.459 79.0628 112.476 79.04H112.502ZM113.483 76.3633C114.067 76.3825 114.649 76.2779 115.19 76.0564C115.66 75.8661 116.082 75.5751 116.427 75.2039C116.789 74.8081 117.058 74.3362 117.213 73.8229V71.2656C117.067 70.7793 116.806 70.335 116.453 69.9698C116.103 69.5924 115.671 69.3007 115.19 69.1174C114.652 68.8834 114.07 68.7671 113.483 68.7764C112.838 68.7711 112.205 68.9485 111.657 69.2879C111.108 69.6058 110.652 70.0613 110.334 70.6092C109.986 71.1969 109.808 71.87 109.822 72.5528C109.814 73.2322 109.991 73.9011 110.334 74.4879C110.65 75.0532 111.105 75.5285 111.657 75.8688C112.199 76.1976 112.823 76.3689 113.457 76.3633H113.483ZM129.724 79.04L122.897 66.8328H126.643L130.91 75.7751L128.965 75.6898L132.856 66.8328H136.372L129.895 79.04H129.724ZM141.852 66.8328L142.133 70.2426L142.022 69.7652C142.326 69.0478 142.791 68.4093 143.379 67.8984C143.935 67.423 144.552 67.0245 145.214 66.7134C145.696 66.4735 146.221 66.3315 146.759 66.2957L146.622 69.4498C145.798 69.3397 144.96 69.4982 144.233 69.9016C143.582 70.2887 143.046 70.8418 142.679 71.5043C142.311 72.1355 142.116 72.8533 142.116 73.5843V78.699H138.993V66.7646L141.852 66.8328ZM151.137 61.5987H154.295V66.8328H157.393V69.3049H154.295V78.7331H151.137V69.3049H149.08V66.8328H151.137V61.5987ZM161.643 61.5987H164.801V66.8328H167.899V69.3049H164.801V78.7331H161.643V69.3049H159.595V66.8328H161.652L161.643 61.5987ZM175.981 79.04C174.926 79.0518 173.884 78.8091 172.943 78.3325C172.038 77.8672 171.292 77.1431 170.801 76.2525C170.27 75.1758 169.994 73.9916 169.994 72.7915C169.994 71.5913 170.27 70.4072 170.801 69.3305C171.323 68.3998 172.083 67.6235 173.002 67.08C173.91 66.563 174.937 66.2926 175.981 66.2957C176.952 66.2475 177.915 66.491 178.746 66.9947C179.404 67.3976 179.968 67.9351 180.402 68.5718L180.24 69.0236L180.547 66.8328H183.491V78.7672H180.334V75.8688L180.649 76.6275C180.517 76.8291 180.365 77.0175 180.197 77.1902C179.908 77.4831 179.597 77.7538 179.267 78C178.837 78.3228 178.363 78.5813 177.859 78.7672C177.255 78.9742 176.618 79.0667 175.981 79.04ZM176.834 76.4826C177.376 76.4913 177.914 76.3867 178.413 76.1757C178.868 75.9846 179.274 75.6932 179.6 75.3233C179.929 74.9278 180.168 74.4652 180.299 73.9679V71.4105C180.161 70.9339 179.91 70.498 179.565 70.1403C179.222 69.7679 178.799 69.4766 178.328 69.2879C177.829 69.0769 177.291 68.9723 176.749 68.981C176.116 68.9703 175.493 69.1355 174.948 69.4584C174.415 69.7867 173.969 70.2403 173.651 70.7797C173.326 71.3724 173.162 72.0392 173.173 72.7148C173.164 73.397 173.341 74.0689 173.685 74.6584C174.008 75.2268 174.473 75.7025 175.034 76.0393C175.591 76.3373 176.22 76.4788 176.852 76.4485L176.834 76.4826Z" fill="white"/>
<path d="M58.0345 53.219C56.7119 54.5781 55.507 56.0467 54.4329 57.6092C54.1769 57.9672 53.9379 58.3423 53.7075 58.7089C53.2381 59.442 52.7943 60.1921 52.3932 60.9593C51.0297 63.4949 49.9944 66.1932 49.3122 68.9895C44.2008 70.0977 38.8978 69.9662 33.8477 68.6059C32.8833 68.3672 31.9531 68.0774 31.0655 67.7534C27.55 66.5209 24.3461 64.5368 21.6776 61.9397C17.9631 58.1226 15.213 53.4762 13.6552 48.3856C21.9251 42.8787 30.1864 39.9974 40.9655 42.2393C41.4946 42.3502 42.0323 42.4695 42.5785 42.6059C48.8628 44.1226 54.3661 47.9016 58.0345 53.219Z" fill="url(#paint0_linear_451_13)"/>
<path d="M49.9097 55.4098C51.4641 56.0459 52.9801 56.7717 54.4501 57.5836C54.194 57.9416 53.9551 58.3167 53.7246 58.6833C53.2552 59.4164 52.8114 60.1666 52.4103 60.9338C51.0468 63.4693 50.0115 66.1676 49.3294 68.9639C48.6617 71.6724 48.3264 74.4519 48.3308 77.2413C48.3308 78.0938 48.3308 78.878 48.4162 79.6879C45.6542 81.1795 42.7071 82.3002 39.6513 83.021C36.6099 83.9649 33.4098 84.2898 30.2404 83.9765C27.0711 83.6631 23.9968 82.7179 21.1997 81.1967C18.1561 79.5726 15.5547 77.2318 13.6211 74.377C15.3367 69.6694 18.1104 65.4174 21.7289 61.9482C25.1405 58.4779 29.2875 55.8155 33.8649 54.1567C39.2062 52.8079 44.8432 53.2481 49.9097 55.4098Z" fill="url(#paint1_linear_451_13)"/>
<path d="M49.3293 68.9895C48.6616 71.698 48.3263 74.4775 48.3307 77.2669C48.3307 78.1193 48.3307 78.9036 48.4161 79.7134C48.6045 82.4266 49.1145 85.1078 49.9352 87.701C49.4146 88.0846 48.8769 88.4597 48.3307 88.8262C39.6597 94.6229 28.0869 94.6229 19.4074 91.7161C19.3575 87.092 20.3867 82.5198 22.4132 78.362C24.4397 74.2042 27.4079 70.575 31.0825 67.762C31.936 67.0374 32.9004 66.3639 33.8733 65.7161C39.3781 62.0505 46.052 60.7036 52.4102 60.9593C51.0467 63.4949 50.0114 66.1932 49.3293 68.9895Z" fill="url(#paint2_linear_451_13)"/>
<path d="M72.2102 44.3279C66.8763 46.0813 62.0473 49.0999 58.1368 53.1253C58.104 53.1523 58.0753 53.1838 58.0515 53.219C56.7289 54.5781 55.5241 56.0467 54.4499 57.6092C54.1939 57.9672 53.9549 58.3423 53.7245 58.7089C52.3572 57.7247 51.0805 56.6206 49.9096 55.4098C46.4361 51.8977 43.6368 47.4053 40.9655 42.2393C40.5387 41.3869 40.112 40.5771 39.6768 39.682C36.7494 28.1312 39.6426 16.6059 48.3222 7.9364C55.929 9.77692 62.5734 14.3889 66.953 20.8682C69.0371 23.9729 70.5621 27.4175 71.4592 31.0466C71.8624 32.6921 72.1476 34.3644 72.3126 36.0505C72.6248 38.8031 72.5904 41.5839 72.2102 44.3279Z" fill="#23C5FF"/>
<path d="M98.9945 47.1108C94.703 44.5471 89.9024 42.951 84.9288 42.434C83.9863 42.3331 83.0342 42.2708 82.0724 42.2471C75.4685 42.0831 68.9553 43.8086 63.3009 47.2201C65.4135 42.8854 68.1916 38.9071 71.5344 35.4294C72.197 34.7163 72.8844 34.0094 73.5925 33.3605C77.752 29.4322 82.7329 26.4755 88.1756 24.704C92.8901 23.1369 97.8387 22.3888 102.806 22.4919C104.83 30.8795 103.46 39.7257 98.9945 47.1108Z" fill="url(#paint3_linear_451_13)"/>
<path d="M85.9337 42.623C85.9375 42.6626 85.9375 42.7026 85.9337 42.7423C84.9522 42.623 84.0049 42.623 83.0405 42.623C78.3968 42.6183 73.7996 43.5455 69.5216 45.3496C65.2436 47.1537 61.3721 49.7979 58.1369 53.1252C55.7922 45.8204 56.427 37.8867 59.9035 31.0466C61.0727 27.5259 63.6843 24.0052 66.953 20.8682C71.5586 16.4406 77.0376 13.0205 83.0405 10.8262C85.9492 15.0618 87.9003 19.8788 88.7586 24.943C89.7145 30.9864 88.7254 37.1769 85.9337 42.623Z" fill="url(#paint4_linear_451_13)"/>
<defs>
<linearGradient id="paint0_linear_451_13" x1="3.3625" y1="55.1569" x2="77.6401" y2="54.7544" gradientUnits="userSpaceOnUse">
<stop stop-color="#23FFFF"/>
<stop offset="0.3075" stop-color="#23C0FF"/>
<stop offset="0.7785" stop-color="#2300B7"/>
<stop offset="0.9207" stop-color="#2300BA"/>
<stop offset="1" stop-color="#2300C1"/>
</linearGradient>
<linearGradient id="paint1_linear_451_13" x1="14.5001" y1="55.0347" x2="62.8255" y2="84.9465" gradientUnits="userSpaceOnUse">
<stop stop-color="#23FFFF"/>
<stop offset="0.31" stop-color="#23C0FF"/>
<stop offset="0.78" stop-color="#2300B7"/>
<stop offset="0.92" stop-color="#2300BA"/>
<stop offset="1" stop-color="#2300C1"/>
</linearGradient>
<linearGradient id="paint2_linear_451_13" x1="25.8082" y1="63.8918" x2="54.265" y2="99.0369" gradientUnits="userSpaceOnUse">
<stop stop-color="#23FFFF"/>
<stop offset="0.31" stop-color="#23C0FF"/>
<stop offset="0.78" stop-color="#2300B7"/>
<stop offset="0.92" stop-color="#2300BA"/>
<stop offset="1" stop-color="#2300C1"/>
</linearGradient>
<linearGradient id="paint3_linear_451_13" x1="106.895" y1="12.6705" x2="59.4495" y2="68.4346" gradientUnits="userSpaceOnUse">
<stop stop-color="#23FFFF"/>
<stop offset="0.3075" stop-color="#23C0FF"/>
<stop offset="0.7785" stop-color="#2300B7"/>
<stop offset="0.9207" stop-color="#2300BA"/>
<stop offset="1" stop-color="#2300C1"/>
</linearGradient>
<linearGradient id="paint4_linear_451_13" x1="87.1779" y1="-2.42828" x2="38.9481" y2="66.9801" gradientUnits="userSpaceOnUse">
<stop stop-color="#23FFFF"/>
<stop offset="0.3075" stop-color="#23C0FF"/>
<stop offset="0.7785" stop-color="#2300B7"/>
<stop offset="0.9207" stop-color="#2300BA"/>
<stop offset="1" stop-color="#2300C1"/>
</linearGradient>
</defs>
</svg>
