<svg width="27" height="26" viewBox="0 0 27 26" fill="none" xmlns="http://www.w3.org/2000/svg">
<circle cx="13.7145" cy="12.9974" r="12.9974" fill="url(#paint0_linear_2_55)" fill-opacity="0.85"/>
<path d="M13.5897 10.8421C12.4709 10.8421 11.558 11.7551 11.558 12.8738C11.558 13.9925 12.4709 14.9055 13.5897 14.9055C14.7084 14.9055 15.6213 13.9925 15.6213 12.8738C15.6213 11.7551 14.7084 10.8421 13.5897 10.8421ZM19.6831 12.8738C19.6831 12.0325 19.6908 11.1987 19.6435 10.3589C19.5963 9.38347 19.3737 8.51775 18.6604 7.80444C17.9456 7.08961 17.0814 6.86861 16.106 6.82136C15.2647 6.77411 14.431 6.78173 13.5912 6.78173C12.7499 6.78173 11.9162 6.77411 11.0764 6.82136C10.1009 6.86861 9.23522 7.09114 8.52192 7.80444C7.80711 8.51928 7.58611 9.38347 7.53886 10.3589C7.49161 11.2003 7.49923 12.034 7.49923 12.8738C7.49923 13.7136 7.49161 14.5488 7.53886 15.3887C7.58611 16.3641 7.80863 17.2298 8.52192 17.9432C9.23674 18.658 10.1009 18.879 11.0764 18.9262C11.9177 18.9735 12.7514 18.9659 13.5912 18.9659C14.4325 18.9659 15.2662 18.9735 16.106 18.9262C17.0814 18.879 17.9471 18.6565 18.6604 17.9432C19.3753 17.2283 19.5963 16.3641 19.6435 15.3887C19.6923 14.5488 19.6831 13.7151 19.6831 12.8738V12.8738ZM13.5897 15.9998C11.8598 15.9998 10.4637 14.6037 10.4637 12.8738C10.4637 11.1439 11.8598 9.74775 13.5897 9.74775C15.3195 9.74775 16.7157 11.1439 16.7157 12.8738C16.7157 14.6037 15.3195 15.9998 13.5897 15.9998ZM16.8437 10.3498C16.4398 10.3498 16.1136 10.0236 16.1136 9.61972C16.1136 9.21582 16.4398 8.88965 16.8437 8.88965C17.2476 8.88965 17.5737 9.21582 17.5737 9.61972C17.5739 9.71563 17.5551 9.81062 17.5184 9.89925C17.4818 9.98788 17.428 10.0684 17.3602 10.1362C17.2924 10.204 17.2118 10.2578 17.1232 10.2945C17.0346 10.3311 16.9396 10.3499 16.8437 10.3498V10.3498Z" fill="white"/>
<defs>
<linearGradient id="paint0_linear_2_55" x1="13.7145" y1="0" x2="13.7145" y2="25.9947" gradientUnits="userSpaceOnUse">
<stop stop-color="#15F1FF"/>
<stop offset="1" stop-color="#3FC5FF"/>
</linearGradient>
</defs>
</svg>
