<svg width="27" height="26" viewBox="0 0 27 26" fill="none" xmlns="http://www.w3.org/2000/svg">
<circle cx="13.0731" cy="12.9974" r="12.9974" fill="url(#paint0_linear_2_58)" fill-opacity="0.85"/>
<path d="M8.13947 8.816C9.0037 8.816 9.7043 8.1154 9.7043 7.25117C9.7043 6.38694 9.0037 5.68634 8.13947 5.68634C7.27524 5.68634 6.57465 6.38694 6.57465 7.25117C6.57465 8.1154 7.27524 8.816 8.13947 8.816Z" fill="white"/>
<path d="M11.1822 10.0015V18.6832H13.8778V14.3899C13.8778 13.257 14.0909 12.1599 15.4955 12.1599C16.8808 12.1599 16.898 13.4551 16.898 14.4614V18.6839H19.595V13.9229C19.595 11.5842 19.0915 9.78696 16.358 9.78696C15.0457 9.78696 14.166 10.5071 13.8062 11.1887H13.7698V10.0015H11.1822ZM6.78955 10.0015H9.48938V18.6832H6.78955V10.0015Z" fill="white"/>
<defs>
<linearGradient id="paint0_linear_2_58" x1="13.0731" y1="0" x2="13.0731" y2="25.9947" gradientUnits="userSpaceOnUse">
<stop stop-color="#15F1FF"/>
<stop offset="1" stop-color="#3FC5FF"/>
</linearGradient>
</defs>
</svg>
