<svg width="27" height="28" viewBox="0 0 27 28" fill="none" xmlns="http://www.w3.org/2000/svg">
<path d="M26.3646 25.3428L24.4508 19.6H22.3508L23.517 25.2H2.98463L4.15083 19.6H2.05083L0.13563 25.3428C-0.35017 26.8044 0.51083 28 2.05083 28H24.4508C25.9908 28 26.8518 26.8044 26.3646 25.3428ZM20.2508 7C20.2508 5.14348 19.5133 3.36301 18.2006 2.05025C16.8878 0.737498 15.1073 0 13.2508 0C11.3943 0 9.61384 0.737498 8.30108 2.05025C6.98833 3.36301 6.25083 5.14348 6.25083 7C6.25083 13.685 13.2508 21 13.2508 21C13.2508 21 20.2508 13.685 20.2508 7ZM9.47083 7.084C9.47083 6.58767 9.56861 6.0962 9.75859 5.63767C9.94857 5.17914 10.227 4.76253 10.5781 4.41163C10.9291 4.06074 11.3458 3.78244 11.8044 3.59263C12.263 3.40282 12.7545 3.30522 13.2508 3.3054C14.2532 3.3054 15.2144 3.70358 15.9232 4.41233C16.632 5.12109 17.0301 6.08237 17.0301 7.0847C17.0301 8.08703 16.632 9.04831 15.9232 9.75707C15.2144 10.4658 14.2532 10.864 13.2508 10.864C12.2483 10.864 11.2869 10.4658 10.578 9.75686C9.86908 9.04798 9.47083 8.08652 9.47083 7.084Z" fill="#23C5FF"/>
</svg>
