<svg width="27" height="34" viewBox="0 0 27 34" fill="none" xmlns="http://www.w3.org/2000/svg">
<path d="M26.3576 8.52656L18.1915 0.356696C17.9638 0.129018 17.6527 0 17.3301 0H1.21429C0.542634 0 0 0.542634 0 1.21429V32.7857C0 33.4574 0.542634 34 1.21429 34H25.5C26.1717 34 26.7143 33.4574 26.7143 32.7857V9.38415C26.7143 9.06161 26.5853 8.75424 26.3576 8.52656ZM9.10714 12.8259C9.94576 12.8259 10.625 13.5051 10.625 14.3438C10.625 15.1824 9.94576 15.8616 9.10714 15.8616C8.26853 15.8616 7.58929 15.1824 7.58929 14.3438C7.58929 13.5051 8.26853 12.8259 9.10714 12.8259ZM20.3393 23.9821H6.375C6.12076 23.9821 5.98036 23.69 6.13594 23.4926L9.92299 18.6658C9.95139 18.6296 9.98767 18.6002 10.0291 18.58C10.0705 18.5599 10.116 18.5494 10.1621 18.5494C10.2081 18.5494 10.2536 18.5599 10.295 18.58C10.3364 18.6002 10.3727 18.6296 10.4011 18.6658L11.9607 20.6542L14.9129 16.89C14.9413 16.8537 14.9776 16.8243 15.019 16.8041C15.0605 16.784 15.1059 16.7735 15.152 16.7735C15.1981 16.7735 15.2436 16.784 15.285 16.8041C15.3264 16.8243 15.3627 16.8537 15.3911 16.89L20.5708 23.4926C20.7339 23.69 20.5897 23.9821 20.3393 23.9821ZM16.7723 9.94196V2.80045L23.9138 9.94196H16.7723Z" fill="#23C5FF"/>
</svg>
