<svg width="16" height="16" viewBox="0 0 16 16" fill="none" xmlns="http://www.w3.org/2000/svg">
<path d="M11.1605 3.16052C10.2351 3.16052 9.48145 3.91417 9.48145 4.83953C9.48145 5.7649 10.2351 6.51855 11.1605 6.51855C12.0858 6.51855 12.8395 5.7649 12.8395 4.83953C12.8395 3.91417 12.0858 3.16052 11.1605 3.16052ZM11.1605 5.45008C10.8227 5.45008 10.5499 5.17725 10.5499 4.83953C10.5499 4.50182 10.8227 4.22898 11.1605 4.22898C11.4982 4.22898 11.771 4.50182 11.771 4.83953C11.771 5.17725 11.4982 5.45008 11.1605 5.45008Z" fill="#23C5FF"/>
<path d="M15.9995 7.00093L15.4437 1.13052C15.4155 0.826291 15.1733 0.585915 14.8691 0.555868L8.999 0H8.99148C8.93139 0 8.88445 0.0187794 8.84877 0.0544601L0.0549158 8.84882C0.0375077 8.86619 0.0236967 8.88683 0.0142735 8.90955C0.00485032 8.93227 0 8.95662 0 8.98122C0 9.00581 0.00485032 9.03016 0.0142735 9.05288C0.0236967 9.0756 0.0375077 9.09624 0.0549158 9.11361L6.88644 15.9455C6.90393 15.963 6.92473 15.9768 6.94762 15.9862C6.97051 15.9955 6.99504 16.0002 7.01977 16C7.07047 16 7.11742 15.9812 7.15309 15.9455L15.9469 7.15117C15.9845 7.11173 16.0033 7.05727 15.9995 7.00093ZM7.01789 14.0601L1.94025 8.98215L9.44592 1.47606L14.0841 1.91549L14.5236 6.55399L7.01789 14.0601Z" fill="#23C5FF"/>
</svg>
