<svg width="34" height="34" viewBox="0 0 34 34" fill="none" xmlns="http://www.w3.org/2000/svg">
<path d="M14.7319 9.27917L9 23.8H12.1985L13.303 21.0021H19.6516L20.7561 23.8H23.9546L18.2227 9.27917H14.7319ZM14.4773 18.0271L16.4773 12.9602L18.4773 18.0271H14.4773Z" fill="#23C5FF"/>
<path d="M26.0667 2.83333H7.93333V0H0V7.93333H2.83333V26.0667H0V34H7.93333V31.1667H26.0667V34H34V26.0667H31.1667V7.93333H34V0H26.0667V2.83333ZM2.26667 5.66667V2.26667H5.66667V5.66667H2.26667ZM5.66667 31.7333H2.26667V28.3333H5.66667V31.7333ZM26.0667 28.9H7.93333V26.0667H5.1V7.93333H7.93333V5.1H26.0667V7.93333H28.9V26.0667H26.0667V28.9ZM31.7333 28.3333V31.7333H28.3333V28.3333H31.7333ZM28.3333 2.26667H31.7333V5.66667H28.3333V2.26667Z" fill="#23C5FF"/>
</svg>
