<svg width="47" height="33" viewBox="0 0 47 33" fill="none" xmlns="http://www.w3.org/2000/svg">
<path d="M33.4231 3.61111V5.22222M33.4231 11.6667V13.2778M33.4231 19.7222V21.3333M33.4231 27.7778V29.3889M13.5769 18.1111H25.1538M13.5769 22.9444H20.1923M4.48077 2C3.11138 2 2 3.08267 2 4.41667V10.917C3.00718 11.4819 3.84376 12.2954 4.42546 13.2755C5.00716 14.2557 5.31343 15.3678 5.31343 16.5C5.31343 17.6322 5.00716 18.7443 4.42546 19.7245C3.84376 20.7046 3.00718 21.5181 2 22.083V28.5833C2 29.9173 3.11138 31 4.48077 31H42.5192C43.8886 31 45 29.9173 45 28.5833V22.083C43.9928 21.5181 43.1562 20.7046 42.5745 19.7245C41.9928 18.7443 41.6866 17.6322 41.6866 16.5C41.6866 15.3678 41.9928 14.2557 42.5745 13.2755C43.1562 12.2954 43.9928 11.4819 45 10.917V4.41667C45 3.08267 43.8886 2 42.5192 2H4.48077Z" stroke="#23C5FF" stroke-width="3.5" stroke-linecap="round" stroke-linejoin="round"/>
</svg>
