<svg width="27" height="26" viewBox="0 0 27 26" fill="none" xmlns="http://www.w3.org/2000/svg">
<circle cx="13.356" cy="12.9974" r="12.9974" fill="url(#paint0_linear_2_52)" fill-opacity="0.85"/>
<path d="M19.8898 9.72934C19.4417 9.94102 18.9603 10.084 18.4543 10.1487C18.9764 9.81561 19.3671 9.29136 19.5533 8.67379C19.0628 8.98444 18.5258 9.2031 17.9659 9.32028C17.5894 8.89169 17.0907 8.60761 16.5472 8.51215C16.0037 8.41669 15.4459 8.51519 14.9603 8.79236C14.4747 9.06953 14.0886 9.50985 13.8618 10.045C13.635 10.5801 13.5802 11.1801 13.7061 11.7518C12.712 11.6985 11.7396 11.4231 10.8519 10.9433C9.96416 10.4635 9.18099 9.79007 8.55321 8.96671C8.33855 9.36147 8.21512 9.81916 8.21512 10.3066C8.21488 10.7454 8.31624 11.1775 8.51021 11.5645C8.70418 11.9516 8.98476 12.2816 9.32705 12.5253C8.93008 12.5118 8.54187 12.3974 8.19473 12.1917V12.226C8.19469 12.8415 8.39438 13.438 8.75991 13.9143C9.12545 14.3907 9.63431 14.7176 10.2002 14.8395C9.83191 14.9457 9.44583 14.9614 9.07107 14.8852C9.23072 15.4148 9.5417 15.8779 9.96048 16.2096C10.3793 16.5414 10.8849 16.7252 11.4065 16.7354C10.521 17.4766 9.42734 17.8786 8.30152 17.8768C8.10209 17.8769 7.90284 17.8644 7.70477 17.8396C8.84754 18.6229 10.1778 19.0387 11.5364 19.037C16.1354 19.037 18.6496 14.9762 18.6496 11.4543C18.6496 11.3398 18.6469 11.2243 18.6421 11.1098C19.1312 10.7328 19.5533 10.2659 19.8887 9.73105L19.8898 9.72934Z" fill="white"/>
<defs>
<linearGradient id="paint0_linear_2_52" x1="13.356" y1="0" x2="13.356" y2="25.9947" gradientUnits="userSpaceOnUse">
<stop stop-color="#15F1FF"/>
<stop offset="1" stop-color="#3FC5FF"/>
</linearGradient>
</defs>
</svg>
