<svg width="17" height="8" viewBox="0 0 17 8" fill="none" xmlns="http://www.w3.org/2000/svg">
<path d="M16.9999 1.32738C17.0005 1.49815 16.9605 1.66688 16.8828 1.82117C16.805 1.97546 16.6915 2.11139 16.5507 2.21897L9.26565 7.73997C9.04839 7.90809 8.77588 8 8.49465 8C8.21342 8 7.9409 7.90809 7.72365 7.73997L0.438622 2.02465C0.190668 1.83063 0.0347386 1.55183 0.00513747 1.24957C-0.0244637 0.947314 0.0746878 0.646367 0.280779 0.412934C0.486871 0.179502 0.783021 0.0327053 1.10408 0.00483746C1.42514 -0.0230303 1.74481 0.0703143 1.99276 0.264336L8.50072 5.37383L15.0087 0.435796C15.1869 0.296018 15.4039 0.207228 15.6341 0.179932C15.8642 0.152637 16.0978 0.187977 16.3073 0.281771C16.5168 0.375567 16.6934 0.52389 16.8161 0.709192C16.9388 0.894495 17.0026 1.10902 16.9999 1.32738Z" fill="black"/>
</svg>
